# Blender v2.79 (sub 0) OBJ File: 'Sentinels.blend'
# www.blender.org
mtllib Placeholder.mtl
o Cube.004_Cube.003
v -0.962816 -11.981487 0.264164
v -1.539162 -7.977996 0.840510
v -0.962816 -11.981487 0.143988
v -1.539162 -7.977996 -0.432358
v -0.842640 -11.981487 0.264164
v -0.266294 -7.977996 0.840510
v -0.842640 -11.981487 0.143988
v -0.266294 -7.977996 -0.432358
v 0.000000 0.809016 -0.587785
v 0.000000 -0.809017 -0.587785
v 0.000000 -1.000000 0.000000
v 0.345492 0.809017 -0.475528
v 0.559017 0.309017 -0.769421
v 0.559017 -0.309017 -0.769421
v 0.345492 -0.809017 -0.475528
v 0.559017 0.809018 -0.181636
v 0.904509 0.309017 -0.293893
v 0.904509 -0.309016 -0.293893
v 0.559017 -0.809017 -0.181636
v 0.559017 0.809018 0.181636
v 0.904509 0.309017 0.293893
v 0.904509 -0.309016 0.293893
v 0.559017 -0.809017 0.181636
v 0.345492 0.809017 0.475528
v 0.559017 0.309017 0.769421
v 0.559017 -0.309017 0.769421
v 0.345492 -0.809017 0.475528
v 0.000000 0.809016 0.587786
v 0.000000 0.309017 0.951057
v 0.000000 -0.309017 0.951057
v 0.000000 -0.809017 0.587785
v 0.000000 1.000000 0.000000
v -0.345491 0.809016 0.475528
v -0.559017 0.309016 0.769421
v -0.559017 -0.309018 0.769421
v -0.345491 -0.809017 0.475528
v -0.559017 0.809017 0.181636
v -0.904508 0.309015 0.293893
v -0.904508 -0.309018 0.293893
v -0.559017 -0.809019 0.181636
v -0.559017 0.809017 -0.181636
v -0.904508 0.309015 -0.293892
v -0.904508 -0.309018 -0.293892
v -0.559017 -0.809019 -0.181635
v -0.345491 0.809016 -0.475528
v -0.559017 0.309016 -0.769421
v -0.559017 -0.309018 -0.769421
v -0.345491 -0.809017 -0.475528
v 0.000000 0.309017 -0.951056
v 0.000000 -0.309017 -0.951056
v 1.010320 -11.992037 0.264164
v 0.433974 -7.988546 0.840510
v 1.010320 -11.992037 0.143988
v 0.433974 -7.988546 -0.432358
v 1.130496 -11.992037 0.264164
v 1.706842 -7.988544 0.840510
v 1.130496 -11.992037 0.143988
v 1.706842 -7.988544 -0.432358
v 2.460504 -1.236020 0.578769
v 2.145525 -1.692573 2.288830
v 1.968738 -1.342379 2.511644
v 2.582319 -1.171931 0.749090
v 2.676100 -1.503797 1.077644
v 2.554558 -1.667689 1.911626
v 2.287983 -1.532282 2.416153
v 2.588777 -1.041841 0.909692
v 2.694478 -1.275129 1.302891
v 2.598897 -1.365872 2.032476
v 2.322891 -1.323181 2.439487
v 2.476191 -0.900965 1.010481
v 2.518401 -1.038868 1.415511
v 2.442505 -1.109578 1.972277
v 2.233392 -1.153028 2.376208
v 2.286845 -0.800654 1.012706
v 2.210470 -0.887757 1.386968
v 2.118973 -1.060176 1.721542
v 2.050368 -1.095651 2.258050
v 2.094248 -0.784722 0.921896
v 1.896380 -0.874123 1.243050
v 1.798494 -1.079993 1.559378
v 1.848426 -1.143746 2.162764
v 2.312355 -0.915215 0.665451
v 1.972171 -0.858824 0.769253
v 1.695617 -1.003584 1.016583
v 1.591651 -1.226055 1.381890
v 1.705823 -1.281978 2.106803
v 1.966414 -0.994874 0.614899
v 1.681221 -1.236754 0.813899
v 1.565682 -1.475179 1.391171
v 1.675238 -1.465426 2.113963
v 2.079413 -1.133194 0.507708
v 1.859265 -1.467354 0.670789
v 1.730227 -1.727705 1.336260
v 1.767164 -1.637001 2.144703
v 2.268572 -1.221133 0.486700
v 2.165248 -1.602549 0.623339
v 2.040750 -1.855843 1.131988
v 1.947401 -1.728233 2.186416
v 2.476549 -1.618720 0.775749
v 2.353129 -1.853657 1.312323
v 1.617344 0.008903 6.770259
v 1.393754 -1.094051 2.576121
v 1.653452 -0.067077 6.796413
v 1.745942 -1.835149 2.831234
v 1.693946 0.050113 6.784222
v 2.140907 -0.692102 2.712314
v 1.730053 -0.025867 6.810376
v 2.493094 -1.433201 2.967426
v 0.970723 -6.743159 -0.186692
v 0.970723 -7.681910 -0.186692
v 0.970723 -7.792714 0.154329
v 1.171170 -6.743158 -0.121563
v 1.295054 -7.033249 -0.292074
v 1.295054 -7.391820 -0.292074
v 1.171170 -7.681910 -0.121563
v 1.295054 -6.743158 0.048948
v 1.495501 -7.033248 -0.016182
v 1.495501 -7.391819 -0.016182
v 1.295054 -7.681910 0.048948
v 1.295054 -6.743158 0.259711
v 1.495501 -7.033248 0.324840
v 1.495501 -7.391819 0.324840
v 1.295054 -7.681910 0.259711
v 1.171170 -6.743158 0.430221
v 1.295054 -7.033249 0.600732
v 1.295054 -7.391820 0.600732
v 1.171170 -7.681910 0.430221
v 0.970723 -6.743159 0.495351
v 0.970723 -7.033249 0.706114
v 0.970723 -7.391820 0.706114
v 0.970723 -7.681910 0.495351
v 0.970723 -6.632354 0.154329
v 0.770275 -6.743159 0.430221
v 0.646392 -7.033249 0.600732
v 0.646392 -7.391820 0.600732
v 0.770275 -7.681911 0.430221
v 0.646392 -6.743159 0.259711
v 0.445944 -7.033249 0.324840
v 0.445944 -7.391821 0.324840
v 0.646392 -7.681911 0.259711
v 0.646392 -6.743159 0.048948
v 0.445944 -7.033249 -0.016182
v 0.445944 -7.391821 -0.016182
v 0.646392 -7.681911 0.048948
v 0.770275 -6.743159 -0.121563
v 0.646392 -7.033249 -0.292074
v 0.646392 -7.391820 -0.292074
v 0.770275 -7.681911 -0.121563
v 0.970723 -7.033249 -0.397455
v 0.970723 -7.391820 -0.397455
v -2.102852 -0.857440 -0.341021
v -2.102852 -1.796192 -0.341021
v -2.102852 -1.906997 0.000000
v -2.303299 -0.857440 -0.275892
v -2.427182 -1.147531 -0.446403
v -2.427182 -1.506103 -0.446403
v -2.303299 -1.796192 -0.275892
v -2.427182 -0.857440 -0.105381
v -2.627630 -1.147532 -0.170511
v -2.627630 -1.506103 -0.170511
v -2.427182 -1.796193 -0.105381
v -2.427182 -0.857440 0.105382
v -2.627630 -1.147532 0.170511
v -2.627630 -1.506103 0.170511
v -2.427182 -1.796193 0.105382
v -2.303299 -0.857440 0.275892
v -2.427182 -1.147531 0.446403
v -2.427182 -1.506103 0.446403
v -2.303299 -1.796192 0.275892
v -2.102852 -0.857440 0.341022
v -2.102852 -1.147531 0.551785
v -2.102852 -1.506102 0.551785
v -2.102852 -1.796192 0.341022
v -2.102852 -0.746635 0.000000
v -1.902404 -0.857440 0.275892
v -1.778521 -1.147530 0.446403
v -1.778521 -1.506102 0.446403
v -1.902404 -1.796192 0.275892
v -1.778521 -0.857440 0.105382
v -1.578073 -1.147530 0.170511
v -1.578073 -1.506101 0.170511
v -1.778521 -1.796192 0.105382
v -1.778521 -0.857440 -0.105381
v -1.578073 -1.147530 -0.170511
v -1.578073 -1.506101 -0.170511
v -1.778521 -1.796192 -0.105381
v -1.902404 -0.857440 -0.275892
v -1.778520 -1.147530 -0.446403
v -1.778520 -1.506102 -0.446403
v -1.902404 -1.796192 -0.275892
v -2.102852 -1.147531 -0.551785
v -2.102851 -1.506102 -0.551784
v -3.090199 -6.233678 0.044048
v -1.715079 -2.132742 0.429636
v -3.090199 -6.233678 -0.044048
v -1.715079 -2.132742 -0.429636
v -3.178294 -6.233678 0.044048
v -2.574351 -2.132744 0.429636
v -3.178294 -6.233678 -0.044048
v -2.574351 -2.132744 -0.429636
v -0.970722 -6.743161 -0.186692
v -0.970722 -7.681912 -0.186692
v -0.970722 -7.792717 0.154329
v -1.171170 -6.743161 -0.121563
v -1.295053 -7.033251 -0.292074
v -1.295053 -7.391823 -0.292074
v -1.171170 -7.681912 -0.121563
v -1.295053 -6.743161 0.048948
v -1.495501 -7.033251 -0.016182
v -1.495501 -7.391823 -0.016182
v -1.295053 -7.681913 0.048948
v -1.295053 -6.743161 0.259711
v -1.495501 -7.033251 0.324840
v -1.495501 -7.391823 0.324840
v -1.295053 -7.681913 0.259711
v -1.171170 -6.743161 0.430221
v -1.295053 -7.033251 0.600732
v -1.295053 -7.391823 0.600732
v -1.171170 -7.681912 0.430221
v -0.970722 -6.743161 0.495351
v -0.970722 -7.033251 0.706114
v -0.970722 -7.391822 0.706114
v -0.970722 -7.681912 0.495351
v -0.970722 -6.632356 0.154329
v -0.770275 -6.743161 0.430221
v -0.646392 -7.033250 0.600732
v -0.646392 -7.391822 0.600732
v -0.770275 -7.681911 0.430221
v -0.646392 -6.743160 0.259711
v -0.445944 -7.033251 0.324840
v -0.445944 -7.391822 0.324840
v -0.646392 -7.681912 0.259711
v -0.646392 -6.743160 0.048948
v -0.445944 -7.033251 -0.016182
v -0.445944 -7.391822 -0.016182
v -0.646392 -7.681912 0.048948
v -0.770275 -6.743161 -0.121563
v -0.646392 -7.033250 -0.292074
v -0.646392 -7.391822 -0.292074
v -0.770275 -7.681911 -0.121563
v -0.970722 -7.033251 -0.397455
v -0.970722 -7.391822 -0.397455
v 1.427380 -0.530480 0.546500
v 2.649101 0.158071 -0.187207
v 2.141715 -1.380996 -0.170781
v 2.698709 0.099005 -0.237020
v 2.462585 -0.334748 1.345365
v 2.720993 0.171664 -0.131728
v 3.176920 -1.185263 0.628084
v 2.770602 0.112598 -0.181541
v -1.395040 -0.661088 0.661087
v -2.010216 0.661085 0.045911
v -1.395040 -0.661088 -0.661087
v -2.010216 0.661085 -0.045911
v -2.717214 -0.661090 0.661087
v -2.102037 0.661085 0.045911
v -2.717214 -0.661090 -0.661087
v -2.102037 0.661085 -0.045911
v -0.094413 -7.652968 0.094414
v -1.000000 -1.362469 1.000000
v -0.094413 -7.652968 -0.094414
v -1.000000 -1.362469 -1.000000
v 0.094414 -7.652968 0.094414
v 1.000000 -1.362467 1.000000
v 0.094414 -7.652968 -0.094414
v 1.000000 -1.362467 -1.000000
v -1.000000 1.447013 1.000000
v -0.072888 3.447013 0.072888
v -1.000000 1.447013 -1.000000
v -0.072888 3.447013 -0.072888
v 1.000000 1.447015 1.000000
v 0.072888 3.447014 0.072888
v 1.000000 1.447015 -1.000000
v 0.072888 3.447014 -0.072888
v 0.022622 3.337270 0.072888
v -0.011144 3.337270 0.072888
v -0.018883 1.447014 1.000000
v 0.079178 1.447014 1.000000
v -0.343805 2.538056 0.494240
v 0.292411 2.539979 0.493350
v 0.368325 2.588076 0.471054
v -0.285461 2.588314 0.470943
v 0.022622 3.366430 -0.083672
v -0.011144 3.366430 -0.083672
v -0.018883 1.476173 0.843440
v 0.079178 1.476173 0.843440
v -0.343805 2.567216 0.337680
v 0.292411 2.569139 0.336789
v 0.368325 2.617234 0.314494
v -0.285461 2.617475 0.314382
vn -0.9898 -0.1425 0.0000
vn 0.0000 -0.1425 -0.9898
vn 0.9898 -0.1425 0.0000
vn 0.0000 -0.1425 0.9898
vn 0.0000 -1.0000 0.0000
vn 0.0000 1.0000 0.0000
vn 0.2542 0.5685 -0.7824
vn 0.0999 -0.9463 -0.3075
vn 0.3090 -0.0000 -0.9511
vn 0.0999 0.9463 -0.3075
vn 0.2542 -0.5685 -0.7824
vn 0.6656 -0.5685 -0.4836
vn 0.6656 0.5685 -0.4836
vn 0.2616 -0.9463 -0.1900
vn 0.8090 -0.0000 -0.5878
vn 0.2615 0.9463 -0.1900
vn 0.8227 -0.5685 0.0000
vn 0.8227 0.5685 0.0000
vn 0.3233 -0.9463 0.0000
vn 1.0000 -0.0000 0.0000
vn 0.3233 0.9463 0.0000
vn 0.6656 -0.5685 0.4836
vn 0.6656 0.5685 0.4836
vn 0.2616 -0.9463 0.1900
vn 0.8090 -0.0000 0.5878
vn 0.2615 0.9463 0.1900
vn 0.2542 -0.5685 0.7824
vn 0.2542 0.5685 0.7824
vn 0.0999 -0.9463 0.3075
vn 0.3090 -0.0000 0.9511
vn 0.0999 0.9463 0.3075
vn -0.2542 -0.5685 0.7824
vn -0.2542 0.5685 0.7824
vn -0.0999 -0.9463 0.3075
vn -0.3090 -0.0000 0.9511
vn -0.0999 0.9463 0.3075
vn -0.6656 -0.5685 0.4836
vn -0.6656 0.5685 0.4836
vn -0.2615 -0.9463 0.1900
vn -0.8090 -0.0000 0.5878
vn -0.2615 0.9463 0.1900
vn -0.8227 -0.5685 0.0000
vn -0.8227 0.5685 0.0000
vn -0.3233 -0.9463 0.0000
vn -1.0000 -0.0000 0.0000
vn -0.3233 0.9463 0.0000
vn -0.6656 -0.5685 -0.4836
vn -0.6656 0.5685 -0.4836
vn -0.2615 -0.9463 -0.1900
vn -0.8090 0.0000 -0.5878
vn -0.2615 0.9463 -0.1900
vn -0.2542 -0.5685 -0.7824
vn -0.2542 0.5685 -0.7824
vn -0.0999 -0.9463 -0.3075
vn -0.3090 0.0000 -0.9511
vn -0.0999 0.9463 -0.3075
vn 0.8429 -0.2286 -0.4870
vn -0.0928 -0.5674 0.8182
vn 0.7056 -0.7042 -0.0788
vn 0.6311 0.4602 -0.6245
vn 0.3155 -0.9059 0.2824
vn 0.8019 -0.2742 0.5309
vn 0.9771 0.1209 -0.1753
vn 0.2050 -0.1423 0.9684
vn 0.9771 -0.1845 0.1057
vn 0.6783 0.5574 -0.4788
vn 0.7215 0.5411 0.4321
vn 0.8184 0.5639 0.1106
vn 0.1597 0.4168 0.8949
vn 0.8244 0.5376 0.1774
vn 0.6142 0.7208 -0.3214
vn 0.1214 0.9855 0.1186
vn 0.4233 0.8653 0.2684
vn -0.1911 0.7336 0.6522
vn 0.1712 0.9419 0.2891
vn 0.4510 0.8569 -0.2496
vn -0.1685 0.9822 0.0827
vn -0.0487 0.9725 0.2276
vn -0.4311 0.7121 0.5541
vn -0.2212 0.8698 0.4411
vn 0.2147 0.9321 -0.2917
vn -0.6820 0.7161 0.1488
vn -0.4898 0.8704 -0.0502
vn -0.6902 0.5003 0.5229
vn -0.6900 0.6872 0.2275
vn 0.0127 0.8955 -0.4449
vn -0.9787 0.1339 0.1555
vn -0.7229 0.5003 -0.4765
vn -0.8172 0.1579 0.5543
vn -0.9770 0.1446 -0.1568
vn -0.0765 0.7494 -0.6577
vn -0.8471 -0.5188 0.1151
vn -0.6165 0.0468 -0.7859
vn -0.7294 -0.2789 0.6246
vn -0.8270 -0.4463 -0.3419
vn -0.0217 0.6013 -0.7988
vn -0.3794 -0.9202 0.0964
vn -0.2521 -0.2747 -0.9279
vn -0.4458 -0.5623 0.6964
vn -0.4981 -0.7498 -0.4356
vn 0.1301 0.4863 -0.8641
vn -0.0042 -0.9901 0.1401
vn 0.3789 -0.4063 -0.8315
vn -0.2740 -0.6109 0.7428
vn 0.1825 -0.9067 -0.3802
vn 0.4198 0.4123 -0.8085
vn -0.9120 -0.3821 0.1491
vn 0.3823 -0.8406 0.3837
vn 0.9004 0.4346 0.0196
vn -0.4339 0.8768 -0.2074
vn -0.2756 0.1932 0.9417
vn 0.2756 -0.1932 -0.9417
vn 0.2615 -0.9463 -0.1900
vn 0.2616 0.9463 -0.1900
vn 0.2615 -0.9463 0.1900
vn 0.2616 0.9463 0.1900
vn -0.2616 0.9463 0.1900
vn -0.2616 0.9463 -0.1900
vn 0.9481 -0.3179 0.0000
vn 0.0000 -0.0936 -0.9956
vn -0.9893 0.1457 0.0000
vn 0.0000 -0.0936 0.9956
vn -0.5798 0.1827 -0.7940
vn 0.6199 -0.2663 -0.7381
vn 0.8400 0.4511 0.3016
vn -0.3598 0.9001 0.2457
vn -0.3084 -0.7512 0.5836
vn 0.3084 0.7512 -0.5836
vn 0.9067 0.4219 0.0000
vn -0.0000 0.4219 -0.9067
vn -0.9067 0.4218 0.0000
vn -0.0000 0.4219 0.9067
vn -0.9073 0.4206 0.0000
vn -0.0000 0.4206 -0.9073
vn 0.9073 0.4206 0.0000
vn -0.0217 0.4279 0.9036
vn -0.0000 0.9072 0.4206
vn -0.0077 0.4322 0.9018
vn -0.9070 0.4141 0.0771
vn 0.0195 0.4157 0.9093
vn -0.9624 0.2669 0.0497
vn -0.0027 0.9831 0.1831
vn 0.0000 0.9831 0.1831
vn 0.0000 -0.9831 -0.1831
vn -0.0003 -0.9831 -0.1831
vn 0.9532 -0.2971 -0.0553
vn 0.9052 -0.4178 -0.0778
usemtl None
s off
f 1//1 2//1 4//1 3//1
f 3//2 4//2 8//2 7//2
f 7//3 8//3 6//3 5//3
f 5//4 6//4 2//4 1//4
f 3//5 7//5 5//5 1//5
f 8//6 4//6 2//6 6//6
f 49//7 9//7 12//7 13//7
f 11//8 10//8 15//8
f 50//9 49//9 13//9 14//9
f 9//10 32//10 12//10
f 10//11 50//11 14//11 15//11
f 15//12 14//12 18//12 19//12
f 13//13 12//13 16//13 17//13
f 11//14 15//14 19//14
f 14//15 13//15 17//15 18//15
f 12//16 32//16 16//16
f 19//17 18//17 22//17 23//17
f 17//18 16//18 20//18 21//18
f 11//19 19//19 23//19
f 18//20 17//20 21//20 22//20
f 16//21 32//21 20//21
f 23//22 22//22 26//22 27//22
f 21//23 20//23 24//23 25//23
f 11//24 23//24 27//24
f 22//25 21//25 25//25 26//25
f 20//26 32//26 24//26
f 27//27 26//27 30//27 31//27
f 25//28 24//28 28//28 29//28
f 11//29 27//29 31//29
f 26//30 25//30 29//30 30//30
f 24//31 32//31 28//31
f 31//32 30//32 35//32 36//32
f 29//33 28//33 33//33 34//33
f 11//34 31//34 36//34
f 30//35 29//35 34//35 35//35
f 28//36 32//36 33//36
f 36//37 35//37 39//37 40//37
f 34//38 33//38 37//38 38//38
f 11//39 36//39 40//39
f 35//40 34//40 38//40 39//40
f 33//41 32//41 37//41
f 40//42 39//42 43//42 44//42
f 38//43 37//43 41//43 42//43
f 11//44 40//44 44//44
f 39//45 38//45 42//45 43//45
f 37//46 32//46 41//46
f 44//47 43//47 47//47 48//47
f 42//48 41//48 45//48 46//48
f 11//49 44//49 48//49
f 43//50 42//50 46//50 47//50
f 41//51 32//51 45//51
f 48//52 47//52 50//52 10//52
f 46//53 45//53 9//53 49//53
f 11//54 48//54 10//54
f 47//55 46//55 49//55 50//55
f 45//56 32//56 9//56
f 51//1 52//1 54//1 53//1
f 53//2 54//2 58//2 57//2
f 57//3 58//3 56//3 55//3
f 55//4 56//4 52//4 51//4
f 53//5 57//5 55//5 51//5
f 58//6 54//6 52//6 56//6
f 99//57 59//57 62//57 63//57
f 61//58 60//58 65//58
f 100//59 99//59 63//59 64//59
f 59//60 82//60 62//60
f 60//61 100//61 64//61 65//61
f 65//62 64//62 68//62 69//62
f 63//63 62//63 66//63 67//63
f 61//64 65//64 69//64
f 64//65 63//65 67//65 68//65
f 62//66 82//66 66//66
f 69//67 68//67 72//67 73//67
f 67//68 66//68 70//68 71//68
f 61//69 69//69 73//69
f 68//70 67//70 71//70 72//70
f 66//71 82//71 70//71
f 73//72 72//72 76//72 77//72
f 71//73 70//73 74//73 75//73
f 61//74 73//74 77//74
f 72//75 71//75 75//75 76//75
f 70//76 82//76 74//76
f 77//77 76//77 80//77 81//77
f 75//78 74//78 78//78 79//78
f 61//79 77//79 81//79
f 76//80 75//80 79//80 80//80
f 74//81 82//81 78//81
f 81//82 80//82 85//82 86//82
f 79//83 78//83 83//83 84//83
f 61//84 81//84 86//84
f 80//85 79//85 84//85 85//85
f 78//86 82//86 83//86
f 86//87 85//87 89//87 90//87
f 84//88 83//88 87//88 88//88
f 61//89 86//89 90//89
f 85//90 84//90 88//90 89//90
f 83//91 82//91 87//91
f 90//92 89//92 93//92 94//92
f 88//93 87//93 91//93 92//93
f 61//94 90//94 94//94
f 89//95 88//95 92//95 93//95
f 87//96 82//96 91//96
f 94//97 93//97 97//97 98//97
f 92//98 91//98 95//98 96//98
f 61//99 94//99 98//99
f 93//100 92//100 96//100 97//100
f 91//101 82//101 95//101
f 98//102 97//102 100//102 60//102
f 96//103 95//103 59//103 99//103
f 61//104 98//104 60//104
f 97//105 96//105 99//105 100//105
f 95//106 82//106 59//106
f 101//107 102//107 104//107 103//107
f 103//108 104//108 108//108 107//108
f 107//109 108//109 106//109 105//109
f 105//110 106//110 102//110 101//110
f 103//111 107//111 105//111 101//111
f 108//112 104//112 102//112 106//112
f 149//7 109//7 112//7 113//7
f 111//8 110//8 115//8
f 150//9 149//9 113//9 114//9
f 109//10 132//10 112//10
f 110//11 150//11 114//11 115//11
f 115//12 114//12 118//12 119//12
f 113//13 112//13 116//13 117//13
f 111//113 115//113 119//113
f 114//15 113//15 117//15 118//15
f 112//114 132//114 116//114
f 119//17 118//17 122//17 123//17
f 117//18 116//18 120//18 121//18
f 111//19 119//19 123//19
f 118//20 117//20 121//20 122//20
f 116//21 132//21 120//21
f 123//22 122//22 126//22 127//22
f 121//23 120//23 124//23 125//23
f 111//115 123//115 127//115
f 122//25 121//25 125//25 126//25
f 120//116 132//116 124//116
f 127//27 126//27 130//27 131//27
f 125//28 124//28 128//28 129//28
f 111//29 127//29 131//29
f 126//30 125//30 129//30 130//30
f 124//31 132//31 128//31
f 131//32 130//32 135//32 136//32
f 129//33 128//33 133//33 134//33
f 111//34 131//34 136//34
f 130//35 129//35 134//35 135//35
f 128//36 132//36 133//36
f 136//37 135//37 139//37 140//37
f 134//38 133//38 137//38 138//38
f 111//39 136//39 140//39
f 135//40 134//40 138//40 139//40
f 133//117 132//117 137//117
f 140//42 139//42 143//42 144//42
f 138//43 137//43 141//43 142//43
f 111//44 140//44 144//44
f 139//45 138//45 142//45 143//45
f 137//46 132//46 141//46
f 144//47 143//47 147//47 148//47
f 142//48 141//48 145//48 146//48
f 111//49 144//49 148//49
f 143//50 142//50 146//50 147//50
f 141//118 132//118 145//118
f 148//52 147//52 150//52 110//52
f 146//53 145//53 109//53 149//53
f 111//54 148//54 110//54
f 147//55 146//55 149//55 150//55
f 145//56 132//56 109//56
f 191//53 155//53 154//53 151//53
f 153//54 157//54 152//54
f 192//55 156//55 155//55 191//55
f 151//56 154//56 174//56
f 152//52 157//52 156//52 192//52
f 157//47 161//47 160//47 156//47
f 155//48 159//48 158//48 154//48
f 153//49 161//49 157//49
f 156//50 160//50 159//50 155//50
f 154//118 158//118 174//118
f 161//42 165//42 164//42 160//42
f 159//43 163//43 162//43 158//43
f 153//44 165//44 161//44
f 160//45 164//45 163//45 159//45
f 158//46 162//46 174//46
f 165//37 169//37 168//37 164//37
f 163//38 167//38 166//38 162//38
f 153//39 169//39 165//39
f 164//40 168//40 167//40 163//40
f 162//117 166//117 174//117
f 169//32 173//32 172//32 168//32
f 167//33 171//33 170//33 166//33
f 153//34 173//34 169//34
f 168//35 172//35 171//35 167//35
f 166//36 170//36 174//36
f 173//27 178//27 177//27 172//27
f 171//28 176//28 175//28 170//28
f 153//29 178//29 173//29
f 172//30 177//30 176//30 171//30
f 170//31 175//31 174//31
f 178//22 182//22 181//22 177//22
f 176//23 180//23 179//23 175//23
f 153//24 182//24 178//24
f 177//25 181//25 180//25 176//25
f 175//26 179//26 174//26
f 182//17 186//17 185//17 181//17
f 180//18 184//18 183//18 179//18
f 153//19 186//19 182//19
f 181//20 185//20 184//20 180//20
f 179//21 183//21 174//21
f 186//12 190//12 189//12 185//12
f 184//13 188//13 187//13 183//13
f 153//14 190//14 186//14
f 185//15 189//15 188//15 184//15
f 183//16 187//16 174//16
f 190//11 152//11 192//11 189//11
f 188//7 191//7 151//7 187//7
f 153//8 152//8 190//8
f 189//9 192//9 191//9 188//9
f 187//10 151//10 174//10
f 193//119 195//119 196//119 194//119
f 195//120 199//120 200//120 196//120
f 199//121 197//121 198//121 200//121
f 197//122 193//122 194//122 198//122
f 195//5 193//5 197//5 199//5
f 200//6 198//6 194//6 196//6
f 241//53 205//53 204//53 201//53
f 203//54 207//54 202//54
f 242//55 206//55 205//55 241//55
f 201//56 204//56 224//56
f 202//52 207//52 206//52 242//52
f 207//47 211//47 210//47 206//47
f 205//48 209//48 208//48 204//48
f 203//49 211//49 207//49
f 206//50 210//50 209//50 205//50
f 204//118 208//118 224//118
f 211//42 215//42 214//42 210//42
f 209//43 213//43 212//43 208//43
f 203//44 215//44 211//44
f 210//45 214//45 213//45 209//45
f 208//46 212//46 224//46
f 215//37 219//37 218//37 214//37
f 213//38 217//38 216//38 212//38
f 203//39 219//39 215//39
f 214//40 218//40 217//40 213//40
f 212//117 216//117 224//117
f 219//32 223//32 222//32 218//32
f 217//33 221//33 220//33 216//33
f 203//34 223//34 219//34
f 218//35 222//35 221//35 217//35
f 216//36 220//36 224//36
f 223//27 228//27 227//27 222//27
f 221//28 226//28 225//28 220//28
f 203//29 228//29 223//29
f 222//30 227//30 226//30 221//30
f 220//31 225//31 224//31
f 228//22 232//22 231//22 227//22
f 226//23 230//23 229//23 225//23
f 203//24 232//24 228//24
f 227//25 231//25 230//25 226//25
f 225//26 229//26 224//26
f 232//17 236//17 235//17 231//17
f 230//18 234//18 233//18 229//18
f 203//19 236//19 232//19
f 231//20 235//20 234//20 230//20
f 229//21 233//21 224//21
f 236//12 240//12 239//12 235//12
f 234//13 238//13 237//13 233//13
f 203//14 240//14 236//14
f 235//15 239//15 238//15 234//15
f 233//16 237//16 224//16
f 240//11 202//11 242//11 239//11
f 238//7 241//7 201//7 237//7
f 203//8 202//8 240//8
f 239//9 242//9 241//9 238//9
f 237//10 201//10 224//10
f 243//123 244//123 246//123 245//123
f 245//124 246//124 250//124 249//124
f 249//125 250//125 248//125 247//125
f 247//126 248//126 244//126 243//126
f 245//127 249//127 247//127 243//127
f 250//128 246//128 244//128 248//128
f 251//129 253//129 254//129 252//129
f 253//130 257//130 258//130 254//130
f 257//131 255//131 256//131 258//131
f 255//132 251//132 252//132 256//132
f 253//5 251//5 255//5 257//5
f 258//6 256//6 252//6 254//6
f 259//1 260//1 262//1 261//1
f 261//2 262//2 266//2 265//2
f 265//3 266//3 264//3 263//3
f 263//4 264//4 260//4 259//4
f 261//5 265//5 263//5 259//5
f 266//6 262//6 260//6 264//6
f 267//133 268//133 270//133 269//133
f 269//134 270//134 274//134 273//134
f 273//135 274//135 272//135 271//135
f 271//136 272//136 275//136 282//136 281//136 278//136
f 269//5 273//5 271//5 278//5 277//5 267//5
f 274//137 270//137 268//137 276//137 275//137 272//137
f 286//138 289//138 290//138 283//138 284//138 287//138 288//138 285//138
f 282//139 275//139 283//139 290//139
f 277//140 280//140 279//140 276//140 268//140 267//140
f 278//141 281//141 289//141 286//141
f 279//142 280//142 288//142 287//142
f 277//143 278//143 286//143 285//143
f 275//144 276//144 284//144 283//144
f 281//145 282//145 290//145 289//145
f 280//146 277//146 285//146 288//146
f 276//147 279//147 287//147 284//147
